<svg xmlns="http://www.w3.org/2000/svg" version="1.1" xmlns:xlink="http://www.w3.org/1999/xlink" xmlns:svgjs="http://svgjs.dev/svgjs" width="80" height="60" viewBox="0 0 2000 1247"><g transform="matrix(1,0,0,1,-1.2121212121212466,156.84005966548057)"><svg viewBox="0 0 396 247" data-background-color="#ffffff" preserveAspectRatio="xMidYMid meet" height="1247" width="2000" xmlns="http://www.w3.org/2000/svg" xmlns:xlink="http://www.w3.org/1999/xlink"><g id="tight-bounds" transform="matrix(1,0,0,1,0.2400000000000091,-0.09999999999999432)"><svg viewBox="0 0 395.52 247.2" height="247.2" width="395.52"><g><svg></svg></g><g><svg viewBox="0 0 395.52 247.2" height="247.2" width="395.52"><g transform="matrix(1,0,0,1,75.54432,97.41871776257067)"><svg viewBox="0 0 244.43135999999998 52.362564474858665" height="52.362564474858665" width="244.43135999999998"><g><svg viewBox="0 0 244.43135999999998 52.362564474858665" height="52.362564474858665" width="244.43135999999998"><g><svg viewBox="0 0 244.43135999999998 52.362564474858665" height="52.362564474858665" width="244.43135999999998"><g><svg viewBox="0 0 244.43135999999998 52.362564474858665" height="52.362564474858665" width="244.43135999999998"><g id="textblocktransform"><svg viewBox="0 0 244.43135999999998 52.362564474858665" height="52.362564474858665" width="244.43135999999998" id="textblock"><g><svg viewBox="0 0 244.43135999999998 52.362564474858665" height="52.362564474858665" width="244.43135999999998"><g transform="matrix(1,0,0,1,0,0)"><svg width="244.43135999999998" viewBox="4.95 -35.5 168.04000000000002 36" height="52.362564474858665" data-palette-color="#54ecc4"><path d="M4.95-35L6.45-35 6.45 0 4.95 0 4.95-35ZM24.85-35L27-35 10.2-18.3 28.6 0 26.45 0 8.05-18.3 24.85-35ZM37.9-0.05L37.9-1.5 57.6-1.5 57.6-31.45 46.35-7.35 35.1-31.5 35.1 0 33.6-0.05 33.6-35.05 35.1-35.05 46.35-10.9 57.6-35 59.1-35.05 59.1 0 37.9-0.05ZM67.95-26.35L67.95-26.35Q67.95-31.2 70.39-33.35 72.84-35.5 78.34-35.5L78.34-35.5Q82.2-35.5 84.55-33.5 86.9-31.5 87.95-27.4L87.95-27.4 83.3-23.9 80.84-23.9 86.25-27.95Q85.2-31.3 83.22-32.65 81.25-34 78.34-34L78.34-34Q76.34-34 74.97-33.75 73.59-33.5 72.22-32.77 70.84-32.05 70.14-30.45 69.45-28.85 69.45-26.35L69.45-26.35Q69.45-24.15 71.47-22.45 73.5-20.75 76.4-19.55 79.3-18.35 82.22-17.1 85.15-15.85 87.17-13.9 89.2-11.95 89.2-9.4L89.2-9.4Q89.2-4.4 86.72-1.95 84.25 0.5 78.25 0.5L78.25 0.5Q73.34 0.5 70.55-1.48 67.75-3.45 66.7-7.6L66.7-7.6 68.09-8.2Q69.09-4.15 71.52-2.58 73.95-1 78.25-1L78.25-1Q83.05-1 85.37-2.85 87.7-4.7 87.7-9.4L87.7-9.4Q87.7-11.6 85.67-13.3 83.65-15 80.72-16.2 77.8-17.4 74.9-18.65 72-19.9 69.97-21.85 67.95-23.8 67.95-26.35ZM92.84-35L117.84-35 117.84-33.5 106.09-33.5 106.09 0 104.59 0 104.59-33.5 92.84-33.5 92.84-35ZM127.44 0L127.44-1.5 141.24-1.5 135.19-18.1 137.99-19.7Q141.44-21.6 141.44-25.75L141.44-25.75Q141.44-33.5 129.64-33.5L129.64-33.5 125.04-33.5 125.04 0 123.54 0 123.54-35 129.64-35Q136.24-35 139.59-32.58 142.94-30.15 142.94-25.75L142.94-25.75Q142.94-20.75 138.74-18.4L138.74-18.4 137.04-17.45 143.39 0 127.44 0ZM152.74-33.5L152.74-35 172.99-35 160.49-15 160.49 0 158.99 0 158.99-15 146.49-35 148.24-35 159.74-16.65 170.29-33.5 152.74-33.5Z" opacity="1" transform="matrix(1,0,0,1,0,0)" fill="#54ecc4" class="wordmark-text-0" data-fill-palette-color="primary" id="text-0"></path></svg></g></svg></g></svg></g></svg></g><g></g></svg></g></svg></g></svg></g><g><path d="M81.781 85.057A122.216 122.216 0 0 1 313.739 85.057L309.017 85.057A117.494 117.494 0 0 0 86.503 85.057L81.781 85.057M81.781 162.143A122.216 122.216 0 0 0 313.739 162.143L309.017 162.143A117.494 117.494 0 0 1 86.503 162.143L81.781 162.143" fill="#54ecc4" stroke="transparent" data-fill-palette-color="tertiary"></path></g></svg></g><defs></defs></svg><rect width="395.52" height="247.2" fill="none" stroke="none" visibility="hidden"></rect></g></svg></g></svg>
