<?xml version="1.0" encoding="UTF-8"?>
<svg version="1.1" xmlns="http://www.w3.org/2000/svg" width="342" height="65"  >
<path d="M0 0 C4.81550287 2.86327198 6.18775298 8.94884341 8 14 C9.68722799 11.46915801 10.47108599 9.80745057 11.375 7 C12.30526924 4.49472047 12.9699306 3.03436503 14.75 1 C18.01504938 -0.45113306 20.46546724 -0.37205608 24 0 C27.35182938 1.49286653 28.7373422 2.50254204 30.46630859 5.77709961 C30.85641113 6.89093018 31.24651367 8.00476074 31.6484375 9.15234375 C32.09348633 10.395 32.53853516 11.63765625 32.99707031 12.91796875 C33.45705825 14.25757987 33.91635512 15.59742846 34.375 16.9375 C34.85377126 18.29996206 35.33392248 19.66193995 35.81542969 21.0234375 C36.77386682 23.7404248 37.72268914 26.46049989 38.66503906 29.18310547 C39.8338708 32.54666889 41.05755816 35.88722043 42.3046875 39.22265625 C42.95316462 40.98175623 43.6016053 42.74086964 44.25 44.5 C44.5495459 45.28624756 44.8490918 46.07249512 45.15771484 46.88256836 C46.73258619 51.2605947 47.55340596 54.41876886 46 59 C44.43652344 61.13671875 44.43652344 61.13671875 42 63 C39.22858117 63.39806287 36.86195576 63.56185389 34.09375 63.53125 C32.95117737 63.53699036 32.95117737 63.53699036 31.78552246 63.54284668 C30.17845332 63.54556313 28.57133976 63.53822044 26.96435547 63.52148438 C24.50778413 63.50006786 22.05413689 63.52129178 19.59765625 63.546875 C18.03384773 63.54423167 16.47004102 63.53910658 14.90625 63.53125 C14.17386108 63.53934692 13.44147217 63.54744385 12.68688965 63.55578613 C9.34101445 63.4944245 7.35831159 63.26191678 4.62597656 61.26464844 C2.95099095 58.93174055 1.98451655 56.95354965 1.078125 54.234375 C0.62373047 52.90019531 0.62373047 52.90019531 0.16015625 51.5390625 C-0.14019531 50.61867187 -0.44054687 49.69828125 -0.75 48.75 C-1.06582031 47.81414063 -1.38164063 46.87828125 -1.70703125 45.9140625 C-2.48198159 43.61269482 -3.24584492 41.30824869 -4 39 C-4.19110352 39.61520508 -4.38220703 40.23041016 -4.57910156 40.86425781 C-5.4566314 43.66369415 -6.35307532 46.45672029 -7.25 49.25 C-7.55035156 50.21808594 -7.85070312 51.18617187 -8.16015625 52.18359375 C-8.61455078 53.58544922 -8.61455078 53.58544922 -9.078125 55.015625 C-9.35043945 55.87446289 -9.62275391 56.73330078 -9.90332031 57.61816406 C-11.48059674 61.04378937 -13.62417326 63.31208663 -17 65 C-20.71288464 65.41254274 -22.54621504 65.26218686 -25.8125 63.375 C-28.49630092 60.461159 -28.66180025 58.9043183 -29 55 C-28.50610352 52.22119141 -28.50610352 52.22119141 -27.62890625 49.3515625 C-27.30567383 48.27463135 -26.98244141 47.1977002 -26.64941406 46.08813477 C-26.29073242 44.94530029 -25.93205078 43.80246582 -25.5625 42.625 C-25.19995117 41.44284912 -24.83740234 40.26069824 -24.46386719 39.04272461 C-23.32515224 35.35663851 -22.16439645 31.67804522 -21 28 C-20.63567871 26.83065918 -20.27135742 25.66131836 -19.89599609 24.45654297 C-18.86352384 21.15310213 -17.81139031 17.85675045 -16.75 14.5625 C-16.43361572 13.55719238 -16.11723145 12.55188477 -15.79125977 11.51611328 C-12.8588065 2.62733039 -9.89709969 -1.71964394 0 0 Z M-6 4 C-8.359044 6.56763621 -9.56561241 9.08994972 -10.62573242 12.38208008 C-11.04582832 13.66910576 -11.04582832 13.66910576 -11.47441101 14.98213196 C-11.91053459 16.36189461 -11.91053459 16.36189461 -12.35546875 17.76953125 C-12.81521843 19.20107796 -12.81521843 19.20107796 -13.28425598 20.6615448 C-13.92936439 22.67846232 -14.57044197 24.69667292 -15.20776367 26.71606445 C-16.18193955 29.79492632 -17.17505974 32.86722235 -18.16992188 35.93945312 C-18.79543086 37.90327672 -19.41981696 39.8674584 -20.04296875 41.83203125 C-20.3397905 42.74580032 -20.63661224 43.6595694 -20.94242859 44.60102844 C-22.50206842 49.60069261 -23.33797439 53.76162017 -23 59 C-22.34 59.33 -21.68 59.66 -21 60 C-17.38107056 57.26108165 -16.557767 53.27418772 -15.30078125 49.12109375 C-15.0608696 48.35322037 -14.82095795 47.58534698 -14.57377625 46.79420471 C-14.06946395 45.17413683 -13.569628 43.55266962 -13.07397461 41.92993164 C-12.31340621 39.44046617 -11.53980329 36.95535556 -10.76367188 34.47070312 C-10.27527899 32.89606969 -9.78762327 31.32120737 -9.30078125 29.74609375 C-9.06958084 29.00024521 -8.83838043 28.25439667 -8.60017395 27.48594666 C-7.41552137 23.81007077 -7.41552137 23.81007077 -7 20 C-6.34 20 -5.68 20 -5 20 C-4.60941406 21.18722656 -4.21882813 22.37445312 -3.81640625 23.59765625 C-1.81436277 29.5990843 0.27562808 35.56891237 2.38891602 41.53198242 C2.8421097 42.81403268 3.29291504 44.09692944 3.74145508 45.38061523 C4.39637853 47.25436473 5.05939461 49.12527952 5.72265625 50.99609375 C6.11203369 52.10138428 6.50141113 53.2066748 6.90258789 54.34545898 C7.84157953 57.09712466 7.84157953 57.09712466 10 59 C10.99 59 11.98 59 13 59 C13 58.34 13 57.68 13 57 C21.25 57 29.5 57 38 57 C39.15652 53.53043999 38.82687663 52.78147263 37.64477539 49.43676758 C37.32436783 48.51603958 37.00396027 47.59531158 36.67384338 46.64668274 C36.31870163 45.65597275 35.96355988 44.66526276 35.59765625 43.64453125 C35.24110458 42.62775803 34.88455292 41.6109848 34.51719666 40.56340027 C33.3741333 37.31003246 32.21848537 34.06129606 31.0625 30.8125 C30.2862777 28.61031901 29.51087648 26.40784843 28.73632812 24.20507812 C26.83374063 18.79998643 24.92079641 13.39864577 23 8 C23.66 7.67 24.32 7.34 25 7 C23.18917496 4.75633337 23.18917496 4.75633337 20.625 4.8125 C16.37336701 6.73585778 15.64796482 10.81232624 14 15 C12.65534326 18.58100884 11.404771 22.18642212 10.1875 25.8125 C9.86330078 26.73998047 9.53910156 27.66746094 9.20507812 28.62304688 C8.90408203 29.51701172 8.60308594 30.41097656 8.29296875 31.33203125 C8.0199292 32.13358643 7.74688965 32.9351416 7.46557617 33.76098633 C6.95513381 36.21576708 7.20078956 37.64940081 8 40 C10.47099595 39.54164569 10.47099595 39.54164569 13 38 C14.20034188 35.44223447 15.04364749 33.24214005 15.8125 30.5625 C16.13637695 29.5405957 16.13637695 29.5405957 16.46679688 28.49804688 C17.37065157 25.5684099 18 23.08052794 18 20 C18.99 20 19.98 20 21 20 C21.38478516 21.92392578 21.38478516 21.92392578 21.77734375 23.88671875 C22.92499667 29.05065133 24.66644081 33.88274611 26.5625 38.8125 C27.19065991 40.46413837 27.81703005 42.1164588 28.44140625 43.76953125 C28.71670166 44.48729736 28.99199707 45.20506348 29.27563477 45.94458008 C29.98090483 47.94581658 30.52080711 49.93415269 31 52 C28.9160597 51.88556397 26.83283507 51.75804453 24.75 51.625 C23.58984375 51.55539063 22.4296875 51.48578125 21.234375 51.4140625 C18.29305666 51.03751692 16.50050989 50.5225877 14 49 C14 49.66 14 50.32 14 51 C13.34 51 12.68 51 12 51 C11.7525 49.9275 11.505 48.855 11.25 47.75 C10.32594363 43.99012292 10.32594363 43.99012292 7.875 42 C7.25625 41.34 6.6375 40.68 6 40 C6.04382813 39.07058594 6.08765625 38.14117187 6.1328125 37.18359375 C6.29527316 31.21587213 3.87806148 25.64275361 2 20.0625 C1.6184375 18.90169922 1.236875 17.74089844 0.84375 16.54492188 C-0.09500909 13.69344115 -1.04314077 10.84544741 -2 8 C-1.34 7.67 -0.68 7.34 0 7 C-1.31201173 5.43750191 -1.31201173 5.43750191 -3 4 C-3.99 4 -4.98 4 -6 4 Z M21 39 C19.9739266 40.31337396 18.97272675 41.64664105 18 43 C18.66 44.32 19.32 45.64 20 47 C21.65 47 23.3 47 25 47 C24.01 44.36 23.02 41.72 22 39 C21.67 39 21.34 39 21 39 Z " fill="#CCCCCC" transform="translate(80,0)" />
<path d="M0 0 C3.47924392 0.8645394 4.91967516 2.61216046 6.93359375 5.48046875 C7.33027232 7.80387179 7.67148731 10.13806491 7.93359375 12.48046875 C8.69542969 11.61421875 9.45726563 10.74796875 10.2421875 9.85546875 C18.22303712 1.11429107 18.22303712 1.11429107 22.55859375 -0.4921875 C26.63671469 -0.65062801 28.59233226 0.25063958 31.99609375 2.54296875 C34.51892465 6.36790592 34.85033494 7.97315789 33.93359375 12.48046875 C31.92977504 15.48619682 29.49628463 17.94651832 26.93359375 20.48046875 C26.19238281 21.23457031 25.45117188 21.98867188 24.6875 22.765625 C22.78561888 24.6878471 20.8681076 26.5911773 18.93359375 28.48046875 C20.23878216 32.10993796 21.80291628 34.90063484 24.15625 37.94921875 C24.77693359 38.76777344 25.39761719 39.58632813 26.03710938 40.4296875 C27.34454952 42.1320971 28.65445352 43.83261728 29.96679688 45.53125 C30.58619141 46.34980469 31.20558594 47.16835938 31.84375 48.01171875 C32.41230713 48.74970703 32.98086426 49.48769531 33.56665039 50.24804688 C35.09106523 52.73764311 35.66411616 54.580293 35.93359375 57.48046875 C34.59782689 60.72447399 33.41575707 62.99830543 30.93359375 65.48046875 C28.11186108 65.71721661 25.3915529 65.8328197 22.56640625 65.8515625 C21.73527313 65.86059097 20.90414001 65.86961945 20.04782104 65.87892151 C18.28761405 65.89344215 16.52735286 65.90231524 14.76708984 65.90600586 C12.07556945 65.91789377 9.38634802 65.96705035 6.6953125 66.01757812 C4.98568828 66.02704321 3.27604997 66.03427784 1.56640625 66.0390625 C0.76212189 66.05859482 -0.04216248 66.07812714 -0.87081909 66.09825134 C-4.41130254 66.06971393 -6.65022978 65.77354105 -9.57055664 63.71704102 C-11.92309835 58.62684265 -11.65647894 53.67923084 -11.6328125 48.13671875 C-11.63901108 46.93486938 -11.64520966 45.73302002 -11.65159607 44.49475098 C-11.65869308 41.95630706 -11.65552241 39.41781659 -11.64282227 36.87939453 C-11.62895543 32.99424697 -11.66303594 29.11150674 -11.70117188 25.2265625 C-11.70212305 22.75911399 -11.70026434 20.29166247 -11.6953125 17.82421875 C-11.70857071 16.66265259 -11.72182892 15.50108643 -11.73548889 14.30432129 C-11.63193687 5.34284884 -11.63193687 5.34284884 -8.65600586 2.25048828 C-5.41726106 0.03677094 -3.80288992 -0.26598663 0 0 Z M-4.06640625 5.48046875 C-8.07999572 9.82009847 -7.50064202 15.07878572 -7.46484375 20.63671875 C-7.46771393 21.61660767 -7.47058411 22.59649658 -7.47354126 23.6060791 C-7.47557888 25.67375264 -7.47007016 27.74144558 -7.45751953 29.80908203 C-7.4414619 32.96951502 -7.45737879 36.12866917 -7.4765625 39.2890625 C-7.47458002 41.30078407 -7.47073623 43.31250484 -7.46484375 45.32421875 C-7.47091644 46.26704712 -7.47698914 47.20987549 -7.48324585 48.18127441 C-7.43053787 53.11078997 -7.25195408 56.45240099 -4.06640625 60.48046875 C-3.73640625 59.82046875 -3.40640625 59.16046875 -3.06640625 58.48046875 C6.83359375 58.48046875 16.73359375 58.48046875 26.93359375 58.48046875 C27.59359375 56.83046875 28.25359375 55.18046875 28.93359375 53.48046875 C28.09414067 51.33264369 28.09414067 51.33264369 26.42578125 49.44921875 C25.85085937 48.72089844 25.2759375 47.99257813 24.68359375 47.2421875 C24.06484375 46.49582031 23.44609375 45.74945313 22.80859375 44.98046875 C22.21304688 44.23410156 21.6175 43.48773438 21.00390625 42.71875 C19.84673261 41.27228295 18.67875382 39.83437954 17.49902344 38.40625 C16.19275396 36.79928592 14.96292186 35.13057379 13.75390625 33.44921875 C13.15320313 32.79953125 12.5525 32.14984375 11.93359375 31.48046875 C10.61359375 31.48046875 9.29359375 31.48046875 7.93359375 31.48046875 C9.21773519 27.77344162 10.64371602 25.40249888 13.41015625 22.6328125 C14.415625 21.60124023 14.415625 21.60124023 15.44140625 20.54882812 C16.85870014 19.12238197 18.27798988 17.69791623 19.69921875 16.27539062 C20.36695312 15.58896484 21.0346875 14.90253906 21.72265625 14.1953125 C22.33834473 13.577771 22.9540332 12.96022949 23.58837891 12.32397461 C25.32656433 10.32229001 25.32656433 10.32229001 24.93359375 6.48046875 C25.59359375 6.15046875 26.25359375 5.82046875 26.93359375 5.48046875 C23.88297778 5.17968511 22.402146 5.14433223 19.86889648 6.96166992 C19.20833252 7.64205322 18.54776855 8.32243652 17.8671875 9.0234375 C17.13435547 9.76787109 16.40152344 10.51230469 15.64648438 11.27929688 C14.89560547 12.06755859 14.14472656 12.85582031 13.37109375 13.66796875 C12.61634766 14.43689453 11.86160156 15.20582031 11.08398438 15.99804688 C4.0167633 22.29548638 4.0167633 22.29548638 0.93359375 30.48046875 C2.25359375 30.48046875 3.57359375 30.48046875 4.93359375 30.48046875 C5.2061499 31.0616748 5.47870605 31.64288086 5.75952148 32.24169922 C6.91943047 34.45346163 8.20520662 36.31769058 9.71875 38.30078125 C10.24919922 39.00074219 10.77964844 39.70070312 11.32617188 40.421875 C11.87724609 41.14246094 12.42832031 41.86304688 12.99609375 42.60546875 C14.09255777 44.04449819 15.18767587 45.48455445 16.28125 46.92578125 C16.76601807 47.56016113 17.25078613 48.19454102 17.75024414 48.84814453 C18.93359375 50.48046875 18.93359375 50.48046875 19.93359375 52.48046875 C13.33359375 52.15046875 6.73359375 51.82046875 -0.06640625 51.48046875 C-0.73018063 37.47008814 -1.22580229 23.50732062 -1.06640625 9.48046875 C-0.07640625 9.48046875 0.91359375 9.48046875 1.93359375 9.48046875 C1.27359375 8.16046875 0.61359375 6.84046875 -0.06640625 5.48046875 C-1.38640625 5.48046875 -2.70640625 5.48046875 -4.06640625 5.48046875 Z M-2.06640625 60.48046875 C-2.06640625 60.81046875 -2.06640625 61.14046875 -2.06640625 61.48046875 C7.17359375 61.48046875 16.41359375 61.48046875 25.93359375 61.48046875 C25.93359375 61.15046875 25.93359375 60.82046875 25.93359375 60.48046875 C16.69359375 60.48046875 7.45359375 60.48046875 -2.06640625 60.48046875 Z " fill="#CCCCCC" transform="translate(11.06640625,-0.48046875)"/>
<path d="M0 0 C1.10118164 -0.01836914 1.10118164 -0.01836914 2.22460938 -0.03710938 C8.4828035 -0.05376828 13.63837548 0.80828157 18.9375 4.375 C24.00078636 9.55336105 24.87394786 13.62564616 25.125 20.6875 C24.99934178 26.44132377 24.08522381 29.59057954 20.6875 34.1875 C20.0275 35.1775 19.3675 36.1675 18.6875 37.1875 C19.34878906 38.26128906 20.01007813 39.33507813 20.69140625 40.44140625 C21.5452643 41.87701374 22.39807399 43.31324514 23.25 44.75 C23.68763672 45.45447266 24.12527344 46.15894531 24.57617188 46.88476562 C26.76907654 50.63169722 27.70134681 52.61516511 27.59375 57.0625 C26.6875 60.1875 26.6875 60.1875 24.625 62.625 C20.49088968 64.82399485 18.34645 64.85306429 13.6875 64.1875 C10.49055851 60.78570595 8.24584585 56.91460524 5.9375 52.875 C5.32390625 51.80636719 4.7103125 50.73773438 4.078125 49.63671875 C3.61921875 48.82847656 3.1603125 48.02023438 2.6875 47.1875 C2.60113281 48.07953125 2.51476562 48.9715625 2.42578125 49.890625 C2.28527344 51.06109375 2.14476562 52.2315625 2 53.4375 C1.80857422 55.17773438 1.80857422 55.17773438 1.61328125 56.953125 C0.4795127 60.91413916 -0.83731002 62.06634701 -4.3125 64.1875 C-8.35574601 64.76510657 -10.45853355 64.68894214 -13.99633789 62.61157227 C-17.14073539 59.32067706 -16.91763942 57.40166562 -16.87109375 52.90234375 C-16.86876236 52.20484512 -16.86643097 51.5073465 -16.86402893 50.78871155 C-16.85431047 49.31857013 -16.83256631 47.84846511 -16.79956055 46.37866211 C-16.75008424 44.1288308 -16.73807534 41.88118601 -16.73242188 39.63085938 C-16.62434587 28.65526881 -16.62434587 28.65526881 -14.3125 25.1875 C-13.3225 24.5275 -12.3325 23.8675 -11.3125 23.1875 C-11.66183594 22.67960937 -12.01117188 22.17171875 -12.37109375 21.6484375 C-15.07896551 17.55211024 -17.2002198 14.24010915 -17.3125 9.1875 C-16.35397375 5.75278095 -15.15773286 3.37614066 -12.3125 1.1875 C-8.24851796 -0.05265727 -4.21343005 0.00364169 0 0 Z M-11.3125 8.1875 C-11.64675735 10.81375139 -11.64675735 10.81375139 -11.3125 13.1875 C-10.3225 13.5175 -9.3325 13.8475 -8.3125 14.1875 C-7.16266566 16.17124884 -6.088874 18.19965006 -5.0625 20.25 C-2.97363408 24.46238683 -2.97363408 24.46238683 0.69921875 26.98046875 C2.83854055 27.00214396 2.83854055 27.00214396 5.6875 26.1875 C5.27177734 25.39085937 5.27177734 25.39085937 4.84765625 24.578125 C4.30431641 23.51851562 4.30431641 23.51851562 3.75 22.4375 C3.39035156 21.74140625 3.03070313 21.0453125 2.66015625 20.328125 C1.73191818 18.28525567 1.15583422 16.37634624 0.6875 14.1875 C0.0275 14.1875 -0.6325 14.1875 -1.3125 14.1875 C-0.13671875 12.66796875 -0.13671875 12.66796875 1.6875 11.1875 C4.16796875 11.11328125 4.16796875 11.11328125 6.875 11.5 C7.77605469 11.61988281 8.67710937 11.73976563 9.60546875 11.86328125 C10.29253906 11.97027344 10.97960937 12.07726562 11.6875 12.1875 C11.5733134 14.12566735 11.44576577 16.06305099 11.3125 18 C11.24289062 19.07894531 11.17328125 20.15789063 11.1015625 21.26953125 C10.6875 24.1875 10.6875 24.1875 8.6875 27.1875 C4.43696078 28.88367717 -0.55403228 28.56394316 -5.08789062 28.79296875 C-8.49127167 28.69920272 -8.49127167 28.69920272 -11.3125 30.1875 C-11.40017112 32.26012076 -11.41945873 34.33570294 -11.41015625 36.41015625 C-11.40693359 37.67021484 -11.40371094 38.93027344 -11.40039062 40.22851562 C-11.39203403 41.56901109 -11.38356907 42.90950588 -11.375 44.25 C-11.3699866 45.59439942 -11.36542342 46.9388006 -11.36132812 48.28320312 C-11.34949488 51.58467941 -11.33300971 54.88606803 -11.3125 58.1875 C-10.3225 58.5175 -9.3325 58.8475 -8.3125 59.1875 C-8.3125 58.1975 -8.3125 57.2075 -8.3125 56.1875 C-7.6525 56.1875 -6.9925 56.1875 -6.3125 56.1875 C-6.26351562 54.92292969 -6.21453125 53.65835938 -6.1640625 52.35546875 C-6.0890262 50.69529053 -6.01347873 49.03513536 -5.9375 47.375 C-5.9065625 46.54162109 -5.875625 45.70824219 -5.84375 44.84960938 C-5.78574219 43.64594727 -5.78574219 43.64594727 -5.7265625 42.41796875 C-5.67943115 41.31038208 -5.67943115 41.31038208 -5.63134766 40.18041992 C-5.3125 38.1875 -5.3125 38.1875 -3.3125 35.1875 C-0.88671875 34.5625 -0.88671875 34.5625 2 34.1875 C7.64872599 33.28045914 10.85548289 32.01951711 14.9375 27.9375 C17.02632436 24.65506171 17.38595854 22.03215361 17.6875 18.1875 C18.3475 18.1875 19.0075 18.1875 19.6875 18.1875 C19.20446726 13.87736172 18.0857201 12.1639837 14.75 9.4375 C14.03972656 8.84453125 13.32945312 8.2515625 12.59765625 7.640625 C8.81309605 4.76157307 5.40517142 4.97001449 0.8125 4.9375 C0.09191406 4.916875 -0.62867188 4.89625 -1.37109375 4.875 C-5.59540131 4.84388171 -8.38224162 4.97636194 -11.3125 8.1875 Z M9.6875 38.1875 C8.6975 39.6725 8.6975 39.6725 7.6875 41.1875 C9.30088383 43.86136147 10.93006379 46.52523489 12.5625 49.1875 C13.25279297 50.3321875 13.25279297 50.3321875 13.95703125 51.5 C14.40175781 52.221875 14.84648437 52.94375 15.3046875 53.6875 C15.71315918 54.3578125 16.12163086 55.028125 16.54248047 55.71875 C16.92033691 56.2034375 17.29819336 56.688125 17.6875 57.1875 C18.3475 57.1875 19.0075 57.1875 19.6875 57.1875 C20.0175 57.8475 20.3475 58.5075 20.6875 59.1875 C21.3475 58.5275 22.0075 57.8675 22.6875 57.1875 C22.35326595 53.09074548 19.85709212 49.51452632 17.875 46 C17.53146484 45.35869141 17.18792969 44.71738281 16.83398438 44.05664062 C14.84270956 40.40617293 14.84270956 40.40617293 11.42578125 38.26171875 C10.56533203 38.22498047 10.56533203 38.22498047 9.6875 38.1875 Z " fill="#CCCCCC" transform="translate(257.3125,0.8125)"/>
<path d="M0 0 C2.53239688 1.75319784 3.75001077 2.85618135 4.4140625 5.89453125 C4.68319019 9.71189511 4.43704322 11.45369597 2 14.5 C-3.06116183 17.03058091 -7.25664561 16.49810125 -12.5 15 C-13.325 14.67 -14.15 14.34 -15 14 C-12.46024789 17.23241178 -10.02305285 18.47161506 -6.25 19.8125 C-0.23347317 22.07314766 5.25884957 25.49486439 8.19140625 31.3984375 C10.18757962 37.82090834 9.75423523 44.16791819 7.0625 50.3125 C3.94128556 55.91285048 -0.84765317 59.64633493 -6.953125 61.63671875 C-15.29611579 63.1174404 -23.4175318 62.22488316 -30.78515625 57.96875 C-35.12368006 54.81345996 -36.86021762 51.06779273 -38 46 C-38.84590014 38.38689873 -36.53295001 32.70896252 -32.25 26.4375 C-31.8375 25.963125 -31.425 25.48875 -31 25 C-31.3196875 24.44699219 -31.639375 23.89398437 -31.96875 23.32421875 C-33.8926505 18.98815512 -33.69466874 14.63112492 -33 10 C-30.90507251 4.74276751 -27.86553299 1.03672201 -22.8125 -1.5625 C-15.06189918 -4.41179339 -7.15516394 -4.08866511 0 0 Z M-26.9375 8.1875 C-28.40381645 12.06892589 -28.78250321 15.90336553 -28 20 C-26.04727501 22.52776057 -23.87833382 23.70027705 -21 25 C-19.26788356 25.80619244 -17.53881812 26.61896512 -15.8125 27.4375 C-14.93207031 27.84871094 -14.05164063 28.25992187 -13.14453125 28.68359375 C-11 30 -11 30 -10 33 C-9.154375 33.5775 -8.30875 34.155 -7.4375 34.75 C-5 37 -5 37 -4.4375 40.5 C-5.07480555 44.46545673 -5.8623675 45.60063397 -9 48 C-11.62315032 49.31157516 -13.23033436 48.89649988 -16.125 48.5625 C-17.03507812 48.46066406 -17.94515625 48.35882813 -18.8828125 48.25390625 C-19.58148438 48.17011719 -20.28015625 48.08632813 -21 48 C-21 48.66 -21 49.32 -21 50 C-21.99 50 -22.98 50 -24 50 C-25.59003508 45.82615792 -26.46544364 42.46825895 -26 38 C-25.03238392 35.98413316 -24.03432904 33.98246398 -23 32 C-23 30.68 -23 29.36 -23 28 C-26.22700655 28.23903752 -27.26842632 29.2496989 -29.6875 31.5 C-32.66800477 35.34789625 -33.2761844 39.20443447 -33 44 C-31.35407722 49.80913922 -29.00935742 52.85687377 -24 56 C-21.00967326 55.90466321 -21.00967326 55.90466321 -18 55 C-16.88625 55.061875 -15.7725 55.12375 -14.625 55.1875 C-9.42292327 54.91842707 -5.20452413 53.38360312 -1.60546875 49.4921875 C1.36760888 44.9747904 1.87655535 40.29026936 1 35 C-0.28350327 32.73242436 -0.28350327 32.73242436 -2 31 C-2.21914062 30.20078125 -2.43828125 29.4015625 -2.6640625 28.578125 C-4.54463381 24.9489523 -7.3315648 24.26700975 -11 23 C-17.6179402 20.71428571 -17.6179402 20.71428571 -19.4375 17.3125 C-19.623125 16.549375 -19.80875 15.78625 -20 15 C-20.99 15.495 -20.99 15.495 -22 16 C-21.75775727 12.36635898 -21.62053762 10.5657843 -18.875 8.0625 C-14.38752923 6.40408689 -10.73337588 7.61480536 -6.1875 8.625 C-3.9635304 9.22839416 -3.9635304 9.22839416 -2 8 C-1.67 8.66 -1.34 9.32 -1 10 C-1.25335763 6.87525593 -1.59087492 5.39548758 -3.875 3.1875 C-12.44304609 -0.06835751 -20.79376063 1.25102006 -26.9375 8.1875 Z M-17 36 C-19.33391203 38.78114056 -19.33391203 38.78114056 -18.625 41.6875 C-18.41875 42.450625 -18.2125 43.21375 -18 44 C-15.14221967 44.68493373 -15.14221967 44.68493373 -12 45 C-11.01 44.34 -10.02 43.68 -9 43 C-9.18828772 40.55519921 -9.18828772 40.55519921 -10 38 C-12.56310828 36.2058242 -13.83119306 36 -17 36 Z " fill="#CCCCCC " transform="translate(171,3)"/>
<path d="M0 0 C0.8452977 -0.00004028 1.6905954 -0.00008057 2.56150818 -0.00012207 C4.34080479 0.00521842 6.12010197 0.02273813 7.89916992 0.05175781 C10.61645834 0.09367849 13.33127017 0.09281677 16.04882812 0.0859375 C17.78256923 0.09642906 19.51629763 0.10936699 21.25 0.125 C22.46267296 0.12530212 22.46267296 0.12530212 23.69984436 0.12561035 C28.7166182 0.23049781 32.34015676 0.87531301 36.05859375 4.59375 C37.59306661 14.11988613 33.98515285 21.04165123 29.55859375 29.21875 C28.91060179 30.453739 28.26502779 31.68999959 27.62182617 32.92749023 C26.66341729 34.77075896 25.70364134 36.61309979 24.7351532 38.45109558 C21.75820775 44.10702524 19.05785439 49.87095008 16.45703125 55.70751953 C13.75264101 61.63817255 13.75264101 61.63817255 11.05859375 63.59375 C7.56805997 64.66169565 4.19250233 64.92198669 0.68359375 63.90625 C-1.41856218 62.20835482 -2.16482654 61.20588176 -2.94140625 58.59375 C-2.74977547 55.33602673 -2.44276321 52.55436525 -0.91796875 49.6328125 C0.32094661 47.12703632 0.91666451 45.40311406 1.05859375 42.59375 C-0.73632522 38.24617681 -3.17789469 34.43681898 -5.72900391 30.49804688 C-7.76028552 27.30755219 -9.61293062 24.02845367 -11.44140625 20.71875 C-11.79114502 20.12497559 -12.14088379 19.53120117 -12.5012207 18.91943359 C-15.13726952 14.15612849 -15.75445048 10.88923544 -14.94140625 5.59375 C-10.25703703 0.48159926 -6.75502089 -0.13733507 0 0 Z M-9.94140625 7.59375 C-9.94140625 8.58375 -9.94140625 9.57375 -9.94140625 10.59375 C-8.95140625 10.59375 -7.96140625 10.59375 -6.94140625 10.59375 C-6.72097656 11.37234375 -6.50054687 12.1509375 -6.2734375 12.953125 C-4.48732183 17.83482531 -2.10429717 22.28087802 0.37109375 26.84375 C0.84482422 27.75382812 1.31855469 28.66390625 1.80664062 29.6015625 C2.27779297 30.47039063 2.74894531 31.33921875 3.234375 32.234375 C3.65630127 33.02360352 4.07822754 33.81283203 4.51293945 34.62597656 C6.42213387 37.05657316 8.14798156 37.68236781 11.05859375 38.59375 C12.34302026 34.74047048 11.5184446 33.87703729 9.75 30.3046875 C9.25048828 29.28117187 8.75097656 28.25765625 8.23632812 27.203125 C7.70330078 26.13578125 7.17027344 25.0684375 6.62109375 23.96875 C5.57933769 21.85224683 4.53889786 19.7350951 3.5 17.6171875 C3.03279541 16.67794434 2.56559082 15.73870117 2.08422852 14.77099609 C1.05859375 12.59375 1.05859375 12.59375 1.05859375 11.59375 C11.45359375 11.09875 11.45359375 11.09875 22.05859375 10.59375 C20.04425118 16.3383566 17.97349016 21.86970353 15.30859375 27.34375 C13.60864538 30.92232 13.05659547 32.46785866 13.12109375 36.53125 C13.10046875 37.541875 13.07984375 38.5525 13.05859375 39.59375 C11.06575237 40.9377593 9.06439704 42.26916292 7.05859375 43.59375 C3.87469311 48.41485019 1.70258403 52.74053139 2.05859375 58.59375 C2.71859375 58.92375 3.37859375 59.25375 4.05859375 59.59375 C4.05859375 58.93375 4.05859375 58.27375 4.05859375 57.59375 C5.04859375 57.59375 6.03859375 57.59375 7.05859375 57.59375 C9.21180839 53.31248867 11.36211517 49.02978246 13.51000977 44.74584961 C14.23744814 43.29592795 14.96561048 41.84636922 15.69458008 40.3972168 C18.1710384 35.47335454 20.62432284 30.53859991 23.05859375 25.59375 C23.5800296 24.54057587 23.5800296 24.54057587 24.11199951 23.46612549 C25.11441798 21.43181781 26.1023061 19.39110234 27.0859375 17.34765625 C27.65948975 16.16631104 28.23304199 14.98496582 28.82397461 13.76782227 C30.00323966 10.73605938 30.34516129 8.79871232 30.05859375 5.59375 C24.6834447 5.54439491 19.3084269 5.50805198 13.93310547 5.48388672 C12.10365502 5.47381516 10.27422072 5.46015724 8.44482422 5.44287109 C5.81864441 5.41867323 3.192677 5.40727868 0.56640625 5.3984375 C-0.25447479 5.38811493 -1.07535583 5.37779236 -1.92111206 5.36715698 C-6.40393407 5.17011508 -6.40393407 5.17011508 -9.94140625 7.59375 Z M9.05859375 18.59375 C9.71859375 20.57375 10.37859375 22.55375 11.05859375 24.59375 C13.40146793 21.92127366 13.40146793 21.92127366 14.05859375 18.59375 C12.40859375 18.59375 10.75859375 18.59375 9.05859375 18.59375 Z " fill="#CCCCCC" transform="translate(305.94140625,0.40625)"/>
<path d="M0 0 C2.16412879 -0.00970026 4.32730513 -0.0407333 6.49121094 -0.07226562 C7.87401782 -0.0787969 9.25683147 -0.08404688 10.63964844 -0.08789062 C12.51982666 -0.10190918 12.51982666 -0.10190918 14.43798828 -0.11621094 C18.08451961 0.26997329 19.91300834 1.02698955 22.80371094 3.24023438 C25.30402748 6.99070919 25.33974648 8.79879703 24.80371094 13.24023438 C22.86621094 16.17773438 22.86621094 16.17773438 19.80371094 18.24023438 C17.53588867 18.44165039 17.53588867 18.44165039 15.11230469 18.36914062 C14.30462646 18.35052979 13.49694824 18.33191895 12.66479492 18.31274414 C12.05063721 18.28881592 11.43647949 18.2648877 10.80371094 18.24023438 C10.8246582 19.4915918 10.84560547 20.74294922 10.8671875 22.03222656 C10.93960488 26.67631582 10.98551712 31.3203552 11.0234375 35.96484375 C11.04354899 37.97469476 11.07084208 39.98448729 11.10546875 41.99414062 C11.15400727 44.88361033 11.17668416 47.77230629 11.19433594 50.66210938 C11.21498108 51.56016296 11.23562622 52.45821655 11.25689697 53.38348389 C11.25913879 59.62065439 11.25913879 59.62065439 8.91796875 62.80566406 C5.34895435 65.22731864 1.94805507 65.00968062 -2.19628906 64.24023438 C-5.22844581 62.04192073 -6.01283304 60.79060244 -7.19628906 57.24023438 C-7.21910661 54.92642609 -7.18714733 52.61194021 -7.12597656 50.29882812 C-7.11506363 48.89585402 -7.10735782 47.49285202 -7.10253906 46.08984375 C-7.09472576 43.89113036 -7.07204772 41.69913295 -6.99414062 39.50170898 C-6.53958754 30.12191348 -6.53958754 30.12191348 -10.68554688 22.05322266 C-13.32806102 19.52184024 -16.24619896 17.40092549 -19.19628906 15.24023438 C-20.79374786 12.04531679 -20.70445748 8.70814048 -20.19628906 5.24023438 C-15.23256876 -1.43511362 -7.51119478 0.02040162 0 0 Z M-15.19628906 7.24023438 C-15.61295573 9.74023438 -15.61295573 9.74023438 -15.19628906 12.24023438 C-12.50427965 14.29349034 -12.50427965 14.29349034 -10.23925781 14.68164062 C-7.7400919 15.36496897 -6.43817384 16.46598085 -4.50878906 18.17773438 C-3.90679687 18.70238281 -3.30480469 19.22703125 -2.68457031 19.76757812 C-1.19628906 21.24023438 -1.19628906 21.24023438 -0.19628906 23.24023438 C-0.85628906 23.24023438 -1.51628906 23.24023438 -2.19628906 23.24023438 C-2.19628906 34.46023437 -2.19628906 45.68023437 -2.19628906 57.24023438 C-0.87628906 57.90023437 0.44371094 58.56023438 1.80371094 59.24023438 C4.26076166 55.55465829 4.25668127 52.53150566 4.42871094 48.24804688 C4.46230713 47.46509247 4.49590332 46.68213806 4.53051758 45.87545776 C4.59630474 44.21975228 4.65646883 42.56381519 4.71142578 40.90771484 C4.80318722 38.37966284 4.93775177 35.85611221 5.07324219 33.33007812 C5.1318955 31.71949584 5.18796985 30.10881715 5.24121094 28.49804688 C5.28777832 27.74580841 5.3343457 26.99356995 5.38232422 26.21853638 C5.4400259 23.29328509 5.43253986 20.97355105 3.47216797 18.68743896 C1.97590183 17.46140655 0.39230326 16.34401981 -1.19628906 15.24023438 C-1.52628906 14.58023437 -1.85628906 13.92023437 -2.19628906 13.24023438 C-2.85628906 13.24023438 -3.51628906 13.24023438 -4.19628906 13.24023438 C-4.19628906 12.58023437 -4.19628906 11.92023437 -4.19628906 11.24023438 C-2.22595703 11.27503906 -2.22595703 11.27503906 -0.21582031 11.31054688 C1.51985107 11.32931089 3.25552862 11.34751041 4.99121094 11.36523438 C5.85552734 11.38199219 6.71984375 11.39875 7.61035156 11.41601562 C12.12579197 11.4506167 15.70452577 11.39591353 19.80371094 9.24023438 C19.30871094 7.75523438 19.30871094 7.75523438 18.80371094 6.24023438 C14.49698152 4.08686967 8.73046089 5.05437959 3.9453125 5.05493164 C1.81197228 5.05274285 -0.32085272 5.03457518 -2.45410156 5.015625 C-3.80566229 5.01269144 -5.15722548 5.01070639 -6.50878906 5.00976562 C-7.74242187 5.00565674 -8.97605469 5.00154785 -10.24707031 4.99731445 C-13.31735678 4.93018597 -13.31735678 4.93018597 -15.19628906 7.24023438 Z " fill="#CCCCCC" transform="translate(205.1962890625,0.759765625)"/>
</svg>
